<svg id="Layer_1" data-name="Layer 1" xmlns="http://www.w3.org/2000/svg" xmlns:xlink="http://www.w3.org/1999/xlink" viewBox="0 0 128 128"><defs><style>.cls-1{fill:none;}.cls-2{fill:url(#linear-gradient);}.cls-3{fill:url(#linear-gradient-2);}.cls-4{clip-path:url(#clip-path);}.cls-5{fill:#3d8dfb;}.cls-6{fill:#eff7ff;}</style><linearGradient id="linear-gradient" y1="64" x2="128" y2="64" gradientUnits="userSpaceOnUse"><stop offset="0" stop-color="#85b8ff" stop-opacity="0"/><stop offset="0.8" stop-color="#599efd"/><stop offset="1" stop-color="#3d8dfb"/></linearGradient><linearGradient id="linear-gradient-2" x1="6.06" y1="8.43" x2="125.37" y2="122.87" gradientUnits="userSpaceOnUse"><stop offset="0" stop-color="#85b8ff"/><stop offset="1" stop-color="#3a8bfb"/></linearGradient><clipPath id="clip-path"><rect class="cls-1" x="4" y="4" width="120" height="120" rx="11"/></clipPath></defs><rect class="cls-2" width="128" height="128" rx="15"/><rect class="cls-3" x="4" y="4" width="120" height="120" rx="11"/><g class="cls-4"><polygon class="cls-5" points="55.65 39.25 74.79 60.45 96.47 39.25 125.58 68.7 125.58 125.57 62.03 124.71 29.37 88.75 55.65 39.25"/></g><path class="cls-6" d="M98.63,49.47,96.48,39.25C81,40,70.19,46.64,70.19,66.22V88.75H97.31V60.43H87C87,54.15,90.87,50.45,98.63,49.47Z"/><path class="cls-6" d="M57.8,49.47,55.65,39.25c-15.52.74-26.28,7.39-26.28,27V88.75H56.49V60.43H46.21C46.21,54.15,50,50.45,57.8,49.47Z"/></svg>